<?xml version="1.0" standalone="no"?>
<!DOCTYPE svg PUBLIC "-//W3C//DTD SVG 20010904//EN"
 "http://www.w3.org/TR/2001/REC-SVG-20010904/DTD/svg10.dtd">
<svg version="1.0" xmlns="http://www.w3.org/2000/svg"
 width="512.000000pt" height="512.000000pt" viewBox="0 0 512.000000 512.000000"
 preserveAspectRatio="xMidYMid meet">
<metadata>
Created by potrace 1.16, written by Peter Selinger 2001-2019
</metadata>
<g transform="translate(0.000000,512.000000) scale(0.100000,-0.100000)"
fill="#1DA1F2" stroke="none">
<path d="M241 5108 c-68 -10 -128 -45 -175 -99 -44 -52 -66 -116 -66 -194 0
-130 57 -215 189 -284 128 -66 292 -131 346 -137 100 -11 184 66 185 168 0 75
-129 378 -195 456 -32 38 -135 89 -190 94 -22 3 -65 1 -94 -4z m122 -190 c9
-5 28 -26 40 -46 26 -41 127 -266 127 -282 0 -24 -292 112 -326 153 -17 21
-24 41 -24 72 0 93 97 147 183 103z"/>
<path d="M4768 5109 c-58 -9 -141 -53 -175 -93 -64 -76 -193 -380 -193 -454 1
-102 85 -179 185 -168 54 6 218 71 346 137 132 69 189 154 189 285 0 193 -157
324 -352 293z m106 -184 c63 -30 88 -120 49 -174 -11 -14 -48 -42 -84 -61 -90
-48 -243 -111 -247 -100 -4 11 94 234 125 282 39 63 95 82 157 53z"/>
<path d="M3699 5005 c-62 -20 -146 -96 -175 -160 -19 -39 -24 -67 -24 -130 0
-44 4 -96 9 -116 l8 -36 -131 53 c-153 62 -353 116 -521 140 -156 22 -457 22
-609 0 -187 -27 -416 -90 -556 -153 -105 -47 -99 -47 -88 -5 6 20 8 77 6 127
-4 103 -28 156 -94 215 -64 56 -117 72 -214 68 -101 -5 -146 -25 -208 -91 -59
-65 -75 -107 -76 -202 -1 -79 0 -84 56 -195 31 -63 69 -137 85 -164 l28 -48
-50 -41 c-80 -65 -256 -245 -321 -328 l-60 -76 -54 44 c-167 135 -240 174
-331 181 -97 7 -159 -17 -230 -87 -71 -72 -94 -132 -87 -235 8 -115 59 -194
162 -249 37 -20 56 -22 182 -22 l140 0 -27 -60 c-76 -168 -138 -397 -165 -607
-24 -188 -15 -480 20 -668 79 -427 256 -786 550 -1114 134 -150 407 -363 559
-437 l47 -23 0 -85 c0 -117 14 -192 49 -268 37 -79 114 -157 197 -198 l59 -30
712 -3 c691 -2 713 -2 765 18 109 41 212 149 252 265 12 32 20 95 23 174 l6
124 29 16 c461 252 829 670 1011 1151 97 257 136 459 144 740 6 225 -3 334
-42 525 -25 120 -101 358 -136 427 -10 20 -19 41 -19 45 0 4 62 8 137 8 124 0
142 2 180 23 66 35 110 79 140 140 37 75 39 181 4 257 -51 115 -169 182 -300
173 -90 -7 -149 -39 -326 -178 l-57 -44 -22 25 c-11 14 -47 57 -78 95 -60 73
-214 226 -287 286 l-45 36 51 88 c28 49 65 123 84 164 30 67 34 85 34 160 0
95 -20 146 -79 208 -73 78 -210 111 -317 77z m-2295 -209 c32 -30 36 -39 36
-82 -1 -53 -14 -122 -50 -252 l-22 -83 -35 58 c-81 133 -128 237 -128 281 0
38 5 48 37 78 31 28 45 34 82 34 37 0 51 -6 80 -34z m2471 1 c64 -64 60 -96
-37 -272 -91 -165 -81 -161 -112 -48 -45 167 -57 242 -41 278 19 48 60 75 112
75 38 0 51 -6 78 -33z m-1180 -207 c271 -21 525 -89 755 -203 110 -54 127 -67
142 -99 25 -53 76 -88 141 -97 46 -6 65 -16 128 -68 171 -140 371 -374 394
-464 15 -56 47 -105 75 -114 38 -12 148 -266 199 -455 48 -182 62 -282 68
-480 11 -353 -58 -660 -216 -974 -173 -341 -424 -618 -731 -809 l-60 -37 0
482 c0 520 0 520 -55 628 -54 106 -179 197 -304 220 -72 13 -1270 13 -1342 0
-125 -23 -250 -114 -304 -220 -55 -108 -55 -108 -55 -628 l0 -482 -60 37
c-309 192 -577 493 -742 833 -244 502 -274 1055 -87 1586 48 136 125 291 149
299 28 9 60 58 75 115 23 86 227 327 394 463 63 52 82 62 128 68 65 9 116 44
141 97 15 32 32 45 129 93 130 65 275 119 411 153 149 37 228 48 467 65 11 0
83 -4 160 -9z m-2282 -696 c18 -9 73 -48 122 -85 130 -99 140 -107 135 -112
-9 -8 -209 -27 -279 -27 -86 0 -130 25 -149 87 -17 53 2 104 50 133 40 24 78
25 121 4z m4423 -9 c66 -51 64 -146 -5 -192 -27 -18 -48 -23 -100 -23 -80 0
-281 21 -281 29 0 10 193 158 241 186 57 32 103 32 145 0z m-2706 -2020 c0
-153 -24 -169 -237 -164 -113 4 -134 7 -153 24 -26 24 -21 50 21 111 59 86
121 112 267 113 l102 1 0 -85z m680 -9 c0 -86 -2 -98 -24 -123 l-24 -28 -167
-3 c-193 -4 -228 0 -261 33 -22 22 -24 32 -24 120 l0 95 250 0 250 0 0 -94z
m425 77 c60 -20 137 -94 155 -147 11 -35 10 -40 -9 -60 -19 -19 -35 -21 -149
-24 -217 -6 -242 10 -242 163 l0 85 98 0 c66 0 115 -6 147 -17z m-260 -389
c48 -21 301 -32 383 -16 l52 9 0 -324 0 -325 -37 23 c-123 74 -248 109 -388
109 -160 0 -305 -47 -419 -135 l-49 -37 -46 20 c-210 93 -513 87 -713 -14
l-48 -24 0 353 0 354 53 -9 c28 -6 118 -8 198 -6 134 4 150 6 202 32 l57 27
58 -28 57 -28 226 0 225 0 60 31 c49 26 61 29 74 18 9 -7 34 -21 55 -30z m140
-719 c129 -34 213 -89 262 -172 22 -38 27 -61 31 -142 7 -159 -31 -247 -136
-309 l-47 -27 -665 0 -665 0 -45 27 c-96 56 -131 121 -138 253 -5 109 4 140
55 185 85 75 211 112 373 112 123 -1 195 -18 292 -69 81 -42 103 -67 124 -139
9 -31 25 -60 37 -69 32 -22 82 -19 113 8 39 34 37 107 -5 191 -34 69 -35 67
44 109 104 54 255 71 370 42z"/>
<path d="M1475 4065 c-27 -26 -33 -72 -14 -106 5 -11 173 -142 371 -291 346
-259 363 -270 397 -264 70 11 103 85 61 138 -10 14 -176 143 -368 286 -310
233 -353 262 -386 262 -26 0 -44 -7 -61 -25z"/>
<path d="M3535 4078 c-57 -33 -697 -521 -711 -543 -19 -30 -13 -84 14 -108 25
-22 64 -30 95 -18 29 11 651 474 705 524 25 25 32 39 32 69 0 70 -73 111 -135
76z"/>
<path d="M875 3384 c-29 -32 -33 -79 -9 -113 15 -20 15 -30 5 -75 -21 -88 -25
-233 -8 -313 40 -185 151 -359 287 -449 22 -15 40 -30 40 -34 0 -4 -13 -13
-29 -20 -40 -16 -65 -69 -50 -107 17 -45 39 -63 77 -63 45 0 1148 423 1180
452 16 16 22 33 22 63 0 52 -31 85 -79 85 -31 0 -33 2 -26 28 12 45 25 144 25
189 l0 42 54 -6 c51 -5 57 -4 85 25 21 20 31 40 31 60 0 32 -31 78 -58 86 -23
8 -1452 176 -1492 176 -21 0 -39 -9 -55 -26z m375 -190 l35 -6 0 -86 c0 -77 3
-93 30 -140 78 -143 252 -196 400 -123 96 47 165 151 165 247 0 35 1 36 33 30
17 -3 64 -8 102 -12 39 -4 81 -11 94 -16 23 -8 24 -11 17 -90 -7 -88 -35 -181
-71 -242 -23 -38 -30 -41 -317 -152 l-293 -114 -53 20 c-266 100 -411 378
-341 656 l12 46 76 -6 c42 -4 92 -9 111 -12z m325 -39 c120 -12 125 -14 125
-47 0 -66 -57 -118 -129 -118 -33 0 -47 6 -76 35 -28 29 -35 43 -35 75 0 55 8
71 34 65 11 -2 48 -7 81 -10z"/>
<path d="M3510 3335 c-338 -41 -660 -79 -715 -86 -88 -10 -103 -15 -128 -41
-25 -25 -29 -34 -24 -66 4 -23 17 -46 34 -61 23 -20 34 -23 78 -18 l52 5 11
-101 c6 -56 15 -114 18 -129 6 -27 4 -28 -29 -28 -69 0 -106 -100 -54 -147 30
-29 1137 -453 1180 -453 89 0 112 135 28 169 -38 16 -39 22 -2 44 42 24 142
125 180 181 113 164 155 368 115 565 -15 73 -15 82 0 103 24 34 20 85 -9 113
-19 20 -34 25 -72 24 -26 -1 -325 -34 -663 -74z m564 -194 c20 -87 20 -158 1
-239 -41 -173 -168 -320 -335 -388 l-60 -24 -298 114 -297 114 -33 66 c-37 73
-68 218 -57 272 6 36 11 38 120 49 33 3 74 8 91 11 l31 6 6 -55 c24 -240 317
-352 496 -191 29 26 61 65 73 87 24 49 37 135 28 187 l-7 39 56 6 c31 3 63 8
71 9 8 2 34 4 57 5 l41 1 16 -69z m-420 13 c3 -9 6 -33 6 -54 0 -32 -7 -46
-35 -75 -29 -29 -43 -35 -76 -35 -72 0 -129 53 -129 118 0 34 -7 32 150 51 36
5 68 9 71 10 4 0 10 -6 13 -15z"/>
</g>
</svg>
