<?xml version="1.0" standalone="no"?>
<!DOCTYPE svg PUBLIC "-//W3C//DTD SVG 20010904//EN"
 "http://www.w3.org/TR/2001/REC-SVG-20010904/DTD/svg10.dtd">
<svg version="1.0" xmlns="http://www.w3.org/2000/svg"
 width="200.000000pt" height="200.000000pt" viewBox="0 0 200.000000 200.000000"
 preserveAspectRatio="xMidYMid meet">
<metadata>
Created by potrace 1.16, written by Peter Selinger 2001-2019
</metadata>
<g transform="translate(0.000000,200.000000) scale(0.100000,-0.100000)"
fill="#1DA1F2" stroke="none">
<path d="M870 1845 c-317 -71 -619 -311 -770 -614 -56 -110 -73 -191 -72 -341
0 -222 44 -358 152 -474 124 -132 347 -262 535 -313 88 -23 119 -26 250 -26
128 0 164 4 245 25 173 46 311 123 439 244 136 128 235 289 282 459 47 167 23
366 -56 469 -19 25 -44 64 -56 88 -113 222 -326 404 -551 469 -96 28 -304 35
-398 14z m422 -82 c116 -40 208 -97 302 -184 77 -72 191 -227 202 -277 4 -15
15 -41 25 -58 40 -67 73 -186 72 -264 -2 -293 -254 -636 -561 -765 -142 -59
-200 -70 -377 -70 -190 0 -261 16 -421 96 -185 92 -328 218 -388 342 -64 131
-74 374 -23 532 72 219 289 462 522 581 156 81 258 104 430 100 114 -2 141 -6
217 -33z"/>
<path d="M640 1231 c0 -11 15 -39 33 -63 l34 -44 -20 -26 c-12 -16 -22 -48
-25 -80 -3 -44 0 -59 20 -88 48 -71 98 -35 98 71 0 48 3 57 20 62 34 9 22 35
-52 112 -72 75 -108 93 -108 56z"/>
<path d="M1208 1163 c-54 -47 -98 -91 -98 -98 0 -21 17 -27 39 -15 19 9 19 7
14 -45 -10 -95 37 -179 74 -132 37 45 39 171 4 206 -15 15 -13 19 36 59 51 41
72 79 58 101 -12 20 -30 10 -127 -76z"/>
<path d="M882 814 c-18 -10 -44 -31 -57 -49 -27 -35 -75 -138 -75 -160 0 -34
28 -11 54 43 47 97 86 132 152 132 34 0 49 -7 87 -40 25 -22 58 -61 74 -85 22
-37 33 -45 53 -43 14 2 26 10 27 18 4 22 -77 126 -127 162 -53 39 -135 49
-188 22z"/>
</g>
</svg>
